<svg id="svg" version="1.1" xmlns="http://www.w3.org/2000/svg"
    xmlns:xlink="http://www.w3.org/1999/xlink"
    viewBox="0, 0, 400,125">

    <!-- Generated from:
    <div class="relative flex flex-row justify-start items-center border-l-4 border-white">
        <span class="digital-font text-white text-[3.3rem] absolute -left-[5px]">B</span>
        <span class="digital-font text-white text-3xl ml-9">Y</span>
        <span class="digital-font text-white text-2xl">TIFIED</span>
    </div> -->
    <path id="path0"
        d="M38.500 8.342 C 37.171 9.625,35.959 10.730,35.808 10.796 C 35.566 10.902,30.850 15.994,29.636 17.459 L 29.189 17.999 29.189 58.765 L 29.189 99.531 30.720 101.196 C 31.561 102.111,32.641 103.285,33.119 103.805 C 33.596 104.325,33.990 104.834,33.994 104.936 C 33.997 105.039,35.580 106.558,37.510 108.311 L 41.021 111.500 51.651 111.500 L 62.282 111.500 64.849 109.087 C 66.261 107.761,67.471 106.673,67.538 106.671 C 67.604 106.669,68.860 107.754,70.328 109.083 L 72.997 111.500 83.609 111.500 L 94.222 111.500 95.319 110.469 C 95.923 109.902,96.986 108.891,97.681 108.223 C 98.376 107.555,99.139 106.908,99.376 106.785 C 99.796 106.567,101.569 104.658,104.542 101.225 L 106.000 99.540 106.000 81.811 L 106.000 64.081 103.585 61.499 C 102.257 60.079,101.172 58.879,101.175 58.833 C 101.177 58.788,102.264 57.555,103.590 56.095 L 106.000 53.440 106.000 35.511 L 105.999 17.583 103.625 15.078 C 102.319 13.701,101.175 12.447,101.083 12.293 C 100.992 12.139,99.429 10.660,97.610 9.006 L 94.304 6.000 83.601 6.000 L 72.898 6.000 70.411 8.333 C 67.535 11.030,67.772 10.949,66.444 9.702 C 65.879 9.171,64.732 8.121,63.895 7.369 L 62.373 6.000 51.645 6.004 L 40.917 6.008 38.500 8.342 M70.362 16.583 L 73.027 19.000 83.014 19.000 L 93.002 19.000 92.959 35.542 L 92.917 52.083 82.887 52.167 L 72.858 52.250 70.342 54.642 C 68.951 55.964,67.735 56.993,67.622 56.944 C 67.509 56.895,66.262 55.800,64.850 54.511 L 62.283 52.167 52.308 52.167 L 42.333 52.167 42.333 35.583 L 42.333 19.000 52.273 19.000 L 62.213 19.000 62.981 18.300 C 63.404 17.915,64.570 16.828,65.572 15.883 C 66.575 14.939,67.463 14.167,67.545 14.167 C 67.628 14.167,68.896 15.254,70.362 16.583 M117.605 36.682 C 117.434 37.540,117.485 43.773,117.668 44.254 C 117.761 44.497,119.981 47.765,122.602 51.515 L 127.367 58.333 129.344 58.333 C 131.847 58.333,131.703 58.569,131.635 54.601 L 131.583 51.552 130.452 49.901 C 129.829 48.993,127.429 45.550,125.118 42.250 L 120.917 36.250 119.314 36.203 L 117.711 36.155 117.605 36.682 M145.283 37.703 C 144.682 38.554,143.066 40.862,141.692 42.833 C 140.318 44.804,138.399 47.557,137.427 48.950 L 135.660 51.484 135.705 54.867 L 135.750 58.250 137.824 58.250 L 139.897 58.250 143.862 52.583 C 146.042 49.467,148.242 46.306,148.750 45.560 L 149.673 44.204 149.628 40.227 L 149.583 36.250 147.980 36.203 L 146.376 36.155 145.283 37.703 M163.375 38.601 C 161.514 40.325,161.514 40.013,163.372 41.647 L 164.910 43.000 169.455 43.000 L 174.000 43.000 174.000 50.964 L 174.000 58.928 174.929 59.839 C 176.351 61.234,176.347 61.153,175.091 62.593 L 174.000 63.844 174.000 71.889 L 174.000 79.934 175.431 81.467 C 177.242 83.408,177.118 83.432,179.398 80.693 L 180.000 79.968 180.000 71.803 L 180.000 63.638 179.000 62.596 C 178.450 62.024,178.000 61.483,178.000 61.396 C 178.000 61.309,178.450 60.730,179.000 60.111 L 180.000 58.984 180.000 51.256 C 180.000 47.005,180.046 43.409,180.101 43.264 C 180.190 43.032,180.752 43.000,184.698 43.000 L 189.193 43.000 190.680 41.636 C 192.491 39.975,192.492 40.157,190.664 38.516 L 189.161 37.167 184.310 37.167 L 179.459 37.167 178.390 38.167 C 177.084 39.388,177.174 39.388,175.762 38.166 L 174.607 37.167 169.762 37.170 L 164.917 37.173 163.375 38.601 M201.797 38.665 L 200.250 40.164 201.750 41.574 L 203.250 42.983 207.833 43.033 L 212.417 43.083 212.460 51.000 L 212.503 58.917 213.497 60.000 C 214.720 61.334,214.720 61.292,213.502 62.622 L 212.503 63.711 212.460 71.564 L 212.417 79.417 207.887 79.500 L 203.358 79.583 201.837 80.978 C 200.034 82.631,200.027 82.444,201.959 84.143 L 203.502 85.500 208.266 85.500 L 213.029 85.500 214.070 84.500 C 215.355 83.267,215.478 83.267,216.885 84.503 L 218.019 85.500 222.755 85.500 L 227.491 85.500 229.079 84.058 C 231.001 82.311,230.997 82.541,229.138 80.917 L 227.613 79.583 223.098 79.500 L 218.583 79.417 218.500 71.560 L 218.417 63.703 217.583 62.801 C 216.167 61.269,216.184 61.517,217.407 60.141 L 218.495 58.917 218.539 51.000 L 218.583 43.083 223.059 43.039 C 228.128 42.989,227.574 43.137,229.433 41.329 C 230.937 39.865,230.966 40.149,229.144 38.525 L 227.621 37.167 222.762 37.167 L 217.903 37.167 216.826 38.160 C 215.503 39.381,215.596 39.381,214.218 38.170 L 213.083 37.172 208.214 37.170 L 203.344 37.167 201.797 38.665 M240.865 38.040 C 238.892 39.857,236.757 42.241,236.502 42.911 C 236.397 43.187,236.333 46.195,236.333 50.861 C 236.333 59.337,236.267 58.871,237.671 60.254 C 238.698 61.266,238.698 61.400,237.671 62.413 C 236.267 63.795,236.333 63.330,236.333 71.806 C 236.333 80.378,236.222 79.709,237.959 81.596 C 239.646 83.428,239.430 83.486,241.913 80.534 L 242.346 80.020 242.337 72.442 C 242.329 65.731,242.358 64.833,242.592 64.598 C 242.821 64.370,243.454 64.333,247.193 64.333 L 251.528 64.333 252.654 63.333 C 253.272 62.783,253.841 62.333,253.917 62.333 C 253.993 62.333,254.561 62.783,255.180 63.333 L 256.305 64.333 261.194 64.333 L 266.083 64.332 267.625 62.902 C 269.401 61.255,269.412 61.492,267.479 59.776 L 266.042 58.500 261.184 58.500 L 256.325 58.500 255.250 59.500 C 254.659 60.050,254.086 60.500,253.977 60.500 C 253.868 60.500,253.272 60.050,252.654 59.500 L 251.528 58.500 247.103 58.500 C 242.899 58.500,242.670 58.484,242.506 58.178 C 242.395 57.970,242.333 55.329,242.333 50.750 C 242.333 46.171,242.395 43.530,242.506 43.322 C 242.670 43.016,242.899 43.000,247.103 43.000 L 251.528 43.000 252.654 42.000 C 253.272 41.450,253.841 41.000,253.917 41.000 C 253.993 41.000,254.561 41.450,255.180 42.000 L 256.305 43.000 261.194 43.000 L 266.083 42.999 267.625 41.569 C 269.484 39.845,269.487 40.184,267.594 38.536 L 266.022 37.167 261.173 37.167 L 256.325 37.167 255.250 38.167 C 254.659 38.717,254.089 39.167,253.985 39.167 C 253.880 39.167,253.287 38.717,252.667 38.167 L 251.539 37.167 246.676 37.167 L 241.813 37.167 240.865 38.040 M278.708 38.601 C 276.847 40.325,276.848 40.013,278.705 41.647 L 280.244 43.000 284.788 43.000 L 289.333 43.000 289.333 50.964 L 289.333 58.928 290.262 59.839 C 291.685 61.234,291.680 61.153,290.425 62.593 L 289.333 63.844 289.333 71.672 L 289.333 79.500 284.838 79.500 L 280.343 79.500 278.755 80.942 C 276.852 82.671,276.875 82.348,278.542 83.863 C 280.468 85.614,280.003 85.500,285.229 85.500 L 289.814 85.500 290.949 84.503 C 292.306 83.310,292.456 83.293,293.465 84.221 C 294.946 85.583,294.542 85.500,299.709 85.500 L 304.344 85.500 305.881 84.111 C 307.825 82.354,307.821 82.471,305.971 80.852 L 304.425 79.500 299.980 79.500 C 296.081 79.500,295.523 79.468,295.434 79.236 C 295.379 79.091,295.333 75.522,295.333 71.305 L 295.333 63.638 294.333 62.596 C 293.783 62.024,293.333 61.483,293.333 61.396 C 293.333 61.309,293.783 60.730,294.333 60.111 L 295.333 58.984 295.333 51.256 C 295.333 47.005,295.379 43.409,295.434 43.264 C 295.523 43.032,296.086 43.000,300.031 43.000 L 304.526 43.000 306.013 41.636 C 307.825 39.975,307.826 40.157,305.997 38.516 L 304.494 37.167 299.648 37.167 L 294.801 37.167 293.710 38.167 C 292.379 39.386,292.504 39.386,291.095 38.166 L 289.941 37.167 285.095 37.170 L 280.250 37.173 278.708 38.601 M317.235 38.523 C 316.418 39.269,315.642 40.037,315.510 40.231 C 315.378 40.425,314.834 41.063,314.302 41.649 L 313.333 42.715 313.339 50.816 L 313.344 58.917 314.423 60.056 C 315.052 60.721,315.454 61.276,315.387 61.389 C 315.324 61.496,314.836 62.077,314.303 62.681 L 313.333 63.779 313.341 71.848 L 313.349 79.917 314.423 81.083 C 315.014 81.725,315.498 82.334,315.499 82.437 C 315.499 82.540,316.256 83.272,317.180 84.062 L 318.860 85.500 323.611 85.500 L 328.362 85.500 329.404 84.500 C 330.688 83.267,330.811 83.267,332.218 84.503 L 333.353 85.500 338.088 85.500 L 342.823 85.500 344.412 84.049 C 346.334 82.293,346.332 82.546,344.430 80.875 L 342.864 79.500 338.084 79.500 L 333.305 79.500 332.180 80.500 C 330.807 81.720,330.870 81.719,329.529 80.542 L 328.438 79.583 323.927 79.500 L 319.417 79.417 319.373 72.011 C 319.339 66.197,319.375 64.577,319.540 64.472 C 319.655 64.398,321.708 64.337,324.101 64.336 L 328.452 64.333 329.543 63.333 C 330.143 62.783,330.701 62.333,330.782 62.333 C 330.863 62.333,331.436 62.783,332.056 63.333 L 333.183 64.333 338.087 64.333 L 342.991 64.333 344.454 62.960 C 346.290 61.236,346.289 61.461,344.469 59.860 L 342.923 58.500 338.069 58.500 L 333.215 58.500 332.124 59.500 C 330.798 60.715,330.940 60.712,329.586 59.542 L 328.477 58.583 323.947 58.500 L 319.417 58.417 319.417 50.750 L 319.417 43.083 323.937 43.039 L 328.458 42.995 329.546 41.997 C 330.868 40.786,330.688 40.786,332.056 42.000 L 333.183 43.000 338.093 43.000 L 343.004 43.000 344.377 41.708 C 346.377 39.827,346.365 40.208,344.477 38.525 L 342.954 37.167 338.095 37.167 L 333.236 37.167 332.160 38.160 C 330.836 39.381,330.930 39.381,329.551 38.170 L 328.417 37.172 323.568 37.170 L 318.720 37.167 317.235 38.523 M356.198 38.040 C 354.226 39.857,352.090 42.241,351.836 42.911 C 351.730 43.187,351.667 46.236,351.667 50.986 L 351.667 58.617 352.146 59.267 C 352.410 59.624,352.897 60.175,353.229 60.491 C 354.020 61.243,353.995 61.439,352.981 62.423 C 351.611 63.753,351.667 63.353,351.667 71.817 C 351.667 80.203,351.596 79.695,352.974 81.168 C 353.531 81.763,353.990 82.333,353.994 82.434 C 354.000 82.617,355.928 84.405,356.895 85.125 C 357.388 85.493,357.487 85.500,362.017 85.500 L 366.637 85.500 367.443 84.852 C 367.887 84.496,368.651 83.793,369.140 83.290 L 370.031 82.375 368.416 80.938 L 366.802 79.500 362.337 79.500 L 357.872 79.500 357.772 79.125 C 357.716 78.919,357.670 75.335,357.669 71.161 L 357.667 63.573 356.667 62.583 C 356.117 62.039,355.667 61.523,355.667 61.436 C 355.667 61.350,356.117 60.772,356.667 60.154 L 357.667 59.028 357.667 51.337 C 357.667 46.353,357.727 43.531,357.839 43.322 C 358.003 43.016,358.234 43.000,362.464 42.997 L 366.917 42.994 368.395 41.622 C 370.156 39.989,370.158 40.091,368.306 38.448 L 366.861 37.167 362.004 37.167 L 357.147 37.167 356.198 38.040 M371.000 45.317 L 371.000 48.634 374.685 53.859 C 376.712 56.732,378.486 59.215,378.627 59.375 C 378.838 59.614,379.168 59.667,380.442 59.667 L 382.000 59.667 382.000 56.872 L 382.000 54.077 380.708 52.211 C 379.998 51.185,378.104 48.469,376.500 46.176 L 373.583 42.006 372.292 42.003 L 371.000 42.000 371.000 45.317 M131.541 61.594 L 129.833 63.521 129.836 73.635 L 129.839 83.750 131.726 85.727 C 133.944 88.050,133.565 88.069,135.792 85.522 L 137.333 83.759 137.328 73.588 L 137.323 63.417 135.537 61.537 C 134.554 60.504,133.637 59.660,133.499 59.662 C 133.361 59.665,132.480 60.534,131.541 61.594 M70.411 62.925 L 73.071 65.333 83.036 65.333 L 93.002 65.333 92.959 81.875 L 92.917 98.417 82.934 98.460 L 72.951 98.503 72.184 99.194 C 71.762 99.574,70.778 100.492,69.998 101.234 C 69.218 101.976,68.382 102.758,68.141 102.971 L 67.702 103.358 65.025 100.929 L 62.348 98.500 52.341 98.500 L 42.333 98.500 42.333 81.917 L 42.333 65.333 52.264 65.333 L 62.196 65.333 63.306 64.292 C 63.917 63.719,65.054 62.632,65.833 61.877 C 67.606 60.158,67.269 60.081,70.411 62.925 M378.893 62.951 C 378.788 63.024,376.969 65.550,374.851 68.564 L 371.000 74.045 371.000 77.363 L 371.000 80.681 372.291 80.632 L 373.581 80.583 377.791 74.591 L 382.000 68.598 382.000 66.229 C 382.000 64.926,382.037 63.761,382.082 63.639 C 382.274 63.115,379.516 62.520,378.893 62.951 "
        stroke="none" fill-rule="evenodd"></path>
</svg>