<svg viewBox="0 0 144 36" fill="none" xmlns="http://www.w3.org/2000/svg">
    <rect width="36.0972" height="36" rx="8.78906" fill="url(#paint0_linear_4047_50404)" />
    <path fill-rule="evenodd" clip-rule="evenodd"
        d="M17.1576 7.69922C16.0641 7.69922 15.1777 8.58328 15.1777 9.67383V10.332H24.4174C25.1464 10.332 25.7374 10.9214 25.7374 11.6484V20.8633H26.3973C27.4908 20.8633 28.3773 19.9792 28.3773 18.8887V9.67383C28.3773 8.58328 27.4908 7.69922 26.3973 7.69922H17.1576Z"
        fill="url(#paint1_linear_4047_50404)" />
    <path fill-rule="evenodd" clip-rule="evenodd"
        d="M11.8776 12.9648C10.7841 12.9648 9.89767 13.8489 9.89767 14.9395V15.5977H19.1374C19.8664 15.5977 20.4574 16.187 20.4574 16.9141V26.1289H21.1173C22.2108 26.1289 23.0973 25.2448 23.0973 24.1543V14.9395C23.0973 13.8489 22.2108 12.9648 21.1173 12.9648H11.8776Z"
        fill="url(#paint2_linear_4047_50404)" />
    <path fill-rule="evenodd" clip-rule="evenodd"
        d="M6.59789 18.2305C5.5044 18.2305 4.61795 19.1145 4.61795 20.2051V20.8633H13.8577C14.5867 20.8633 15.1776 21.4527 15.1776 22.1797V31.3945H15.8376C16.9311 31.3945 17.8176 30.5105 17.8176 29.4199V20.2051C17.8176 19.1145 16.9311 18.2305 15.8376 18.2305H6.59789Z"
        fill="url(#paint3_linear_4047_50404)" />
    <path
        d="M57.3928 17.1542C58.3469 17.435 59.0821 17.9264 59.5983 18.6284C60.1301 19.3148 60.3961 20.165 60.3961 21.179C60.3961 22.5674 59.8799 23.6672 58.8475 24.4784C57.8308 25.2896 56.423 25.6952 54.6241 25.6952H48.4768C47.9293 25.6952 47.5069 25.547 47.2097 25.2506C46.9125 24.9542 46.7639 24.533 46.7639 23.987V10.9064C46.7639 10.3604 46.9125 9.93921 47.2097 9.64281C47.5069 9.34641 47.9293 9.19821 48.4768 9.19821H54.3895C56.1101 9.19821 57.471 9.58041 58.4721 10.3448C59.4888 11.1092 59.9972 12.1544 59.9972 13.4804C59.9972 14.3384 59.7626 15.095 59.2933 15.7502C58.8397 16.3898 58.2062 16.8578 57.3928 17.1542ZM50.3304 15.914H53.7794C54.718 15.914 55.4062 15.758 55.8442 15.446C56.2978 15.1184 56.5246 14.627 56.5246 13.9718C56.5246 13.2854 56.2978 12.7862 55.8442 12.4742C55.4062 12.1466 54.718 11.9828 53.7794 11.9828H50.3304V15.914ZM54.2018 22.9106C55.1716 22.9106 55.8755 22.7468 56.3135 22.4192C56.7514 22.0916 56.9704 21.5612 56.9704 20.828C56.9704 20.0948 56.7514 19.5566 56.3135 19.2134C55.8755 18.8702 55.1716 18.6986 54.2018 18.6986H50.3304V22.9106H54.2018Z"
        fill="white" />
    <path
        d="M69.5339 13.9718C70.0031 13.9406 70.3707 14.0498 70.6366 14.2994C70.9182 14.5334 71.059 14.8922 71.059 15.3758C71.059 15.8906 70.9338 16.2728 70.6836 16.5224C70.4333 16.772 69.9875 16.928 69.3462 16.9904L68.6423 17.0606C67.782 17.1542 67.1563 17.435 66.7652 17.903C66.3898 18.371 66.2021 18.9716 66.2021 19.7048V24.1742C66.2021 24.7202 66.03 25.1336 65.6859 25.4144C65.3574 25.6952 64.9429 25.8356 64.4424 25.8356C63.9262 25.8356 63.496 25.6952 63.1519 25.4144C62.8234 25.1336 62.6592 24.7202 62.6592 24.1742V15.5864C62.6592 15.0716 62.8312 14.6738 63.1753 14.393C63.5195 14.1122 63.934 13.9718 64.4189 13.9718C64.8882 13.9718 65.2792 14.1122 65.5921 14.393C65.9049 14.6582 66.0613 15.0326 66.0613 15.5162V16.148C66.3429 15.4772 66.7652 14.9624 67.3283 14.6036C67.9071 14.2448 68.5328 14.042 69.2054 13.9952L69.5339 13.9718Z"
        fill="white" />
    <path
        d="M73.8597 25.8356C73.3435 25.8356 72.9134 25.6952 72.5692 25.4144C72.2408 25.1336 72.0765 24.7202 72.0765 24.1742V15.6332C72.0765 15.0872 72.2486 14.6738 72.5927 14.393C72.9368 14.1122 73.3592 13.9718 73.8597 13.9718C74.3603 13.9718 74.7748 14.1122 75.1033 14.393C75.4474 14.6738 75.6195 15.0872 75.6195 15.6332V24.1742C75.6195 24.7202 75.4474 25.1336 75.1033 25.4144C74.7748 25.6952 74.3603 25.8356 73.8597 25.8356ZM73.8597 12.0998C73.234 12.0998 72.7413 11.9438 72.3815 11.6318C72.0218 11.3042 71.8419 10.8674 71.8419 10.3214C71.8419 9.77541 72.0218 9.34641 72.3815 9.03441C72.7413 8.72241 73.234 8.56641 73.8597 8.56641C74.4698 8.56641 74.9547 8.73021 75.3144 9.05781C75.6898 9.36981 75.8775 9.79101 75.8775 10.3214C75.8775 10.8674 75.6977 11.3042 75.3379 11.6318C74.9781 11.9438 74.4854 12.0998 73.8597 12.0998Z"
        fill="white" />
    <path
        d="M83.658 25.8824C82.4692 25.8824 81.429 25.6406 80.5374 25.157C79.6458 24.6734 78.9575 23.987 78.4726 23.0978C78.0033 22.2086 77.7687 21.1634 77.7687 19.9622C77.7687 18.761 78.019 17.708 78.5195 16.8032C79.0357 15.8828 79.7553 15.173 80.6782 14.6738C81.601 14.1746 82.6647 13.925 83.8691 13.925C84.4948 13.925 85.1205 14.0108 85.7462 14.1824C86.3875 14.354 86.9585 14.5958 87.459 14.9078C87.9439 15.2042 88.1864 15.641 88.1864 16.2182C88.1864 16.6238 88.0925 16.9592 87.9048 17.2244C87.7171 17.474 87.4668 17.5988 87.154 17.5988C86.9506 17.5988 86.7551 17.5676 86.5674 17.5052C86.3953 17.4272 86.1607 17.318 85.8635 17.1776C85.535 17.006 85.2378 16.8734 84.9719 16.7798C84.7216 16.6862 84.4323 16.6394 84.1038 16.6394C83.2278 16.6394 82.5552 16.9202 82.0859 17.4818C81.6323 18.0278 81.4055 18.8312 81.4055 19.892C81.4055 20.9528 81.6323 21.764 82.0859 22.3256C82.5552 22.8872 83.2278 23.168 84.1038 23.168C84.4323 23.168 84.7216 23.129 84.9719 23.051C85.2222 22.9574 85.5272 22.817 85.887 22.6298C86.1842 22.4894 86.4188 22.388 86.5909 22.3256C86.7629 22.2476 86.9506 22.2086 87.154 22.2086C87.4512 22.2086 87.6936 22.3412 87.8814 22.6064C88.0847 22.8716 88.1864 23.207 88.1864 23.6126C88.1864 24.1898 87.9439 24.6188 87.459 24.8996C86.9585 25.2116 86.3797 25.4534 85.7227 25.625C85.0658 25.7966 84.3775 25.8824 83.658 25.8824Z"
        fill="white" />
    <path
        d="M100.789 22.9574C101.149 23.3006 101.329 23.6906 101.329 24.1274C101.329 24.5642 101.165 24.9542 100.836 25.2974C100.523 25.6406 100.156 25.8122 99.7336 25.8122C99.3269 25.8122 98.9515 25.6484 98.6073 25.3208L93.4689 20.5706V24.1508C93.4689 24.6968 93.2968 25.1102 92.9527 25.391C92.6242 25.6718 92.2097 25.8122 91.7092 25.8122C91.193 25.8122 90.7628 25.6718 90.4187 25.391C90.0902 25.1102 89.9259 24.6968 89.9259 24.1508V10.7426C89.9259 10.1966 90.0902 9.78321 90.4187 9.50241C90.7628 9.22161 91.193 9.08121 91.7092 9.08121C92.2097 9.08121 92.6242 9.22161 92.9527 9.50241C93.2968 9.78321 93.4689 10.1966 93.4689 10.7426V19.1198L98.1615 14.51C98.5057 14.1668 98.8889 13.9952 99.3112 13.9952C99.7492 13.9952 100.132 14.159 100.461 14.4866C100.789 14.7986 100.954 15.173 100.954 15.6098C100.954 16.0154 100.774 16.3976 100.414 16.7564L97.2934 19.7282L100.789 22.9574Z"
        fill="white" />
    <path
        d="M109.274 11.7722C108.633 11.819 108.171 12.014 107.89 12.3572C107.608 12.7004 107.467 13.184 107.467 13.808V14.2058H109.11C110.174 14.2058 110.705 14.6504 110.705 15.5396C110.705 16.4132 110.174 16.85 109.11 16.85H107.467V24.1508C107.467 24.6968 107.295 25.1102 106.951 25.391C106.623 25.6718 106.208 25.8122 105.708 25.8122C105.192 25.8122 104.761 25.6718 104.417 25.391C104.089 25.1102 103.924 24.6968 103.924 24.1508V16.85H102.986C101.938 16.85 101.414 16.4132 101.414 15.5396C101.414 14.6504 101.938 14.2058 102.986 14.2058H103.924C103.924 12.7082 104.339 11.5304 105.168 10.6724C105.997 9.81441 107.139 9.33081 108.594 9.22161L109.204 9.17481L109.626 9.15141C110.705 9.15141 111.245 9.56481 111.245 10.3916C111.245 11.2028 110.791 11.6474 109.884 11.7254L109.274 11.7722Z"
        fill="white" />
    <path
        d="M116.902 13.925C118.591 13.925 119.843 14.3384 120.656 15.1652C121.469 15.9764 121.876 17.2244 121.876 18.9092V24.1976C121.876 24.7124 121.727 25.118 121.43 25.4144C121.133 25.6952 120.719 25.8356 120.187 25.8356C119.686 25.8356 119.279 25.6874 118.967 25.391C118.669 25.079 118.521 24.6812 118.521 24.1976V24.0338C118.286 24.611 117.895 25.0634 117.348 25.391C116.8 25.7186 116.159 25.8824 115.424 25.8824C114.642 25.8824 113.93 25.7264 113.288 25.4144C112.663 25.1024 112.162 24.6656 111.787 24.104C111.427 23.5424 111.247 22.9184 111.247 22.232C111.247 21.3896 111.458 20.7266 111.881 20.243C112.319 19.7594 113.015 19.4084 113.969 19.19C114.923 18.9716 116.229 18.8624 117.887 18.8624H118.497V18.4412C118.497 17.786 118.349 17.3102 118.052 17.0138C117.77 16.7174 117.293 16.5692 116.62 16.5692C115.948 16.5692 114.978 16.8032 113.711 17.2712C113.351 17.4428 113.046 17.5286 112.796 17.5286C112.452 17.5286 112.178 17.4116 111.975 17.1776C111.771 16.928 111.67 16.6082 111.67 16.2182C111.67 15.9062 111.74 15.6488 111.881 15.446C112.021 15.2432 112.248 15.056 112.561 14.8844C113.109 14.588 113.773 14.354 114.556 14.1824C115.353 14.0108 116.135 13.925 116.902 13.925ZM116.198 23.4488C116.886 23.4488 117.441 23.2226 117.864 22.7702C118.286 22.3022 118.497 21.7016 118.497 20.9684V20.5706H118.098C116.831 20.5706 115.94 20.672 115.424 20.8748C114.923 21.0776 114.673 21.4442 114.673 21.9746C114.673 22.4114 114.814 22.7702 115.095 23.051C115.392 23.3162 115.76 23.4488 116.198 23.4488Z"
        fill="white" />
    <path
        d="M129.851 25.8824C128.662 25.8824 127.622 25.6406 126.731 25.157C125.839 24.6734 125.151 23.987 124.666 23.0978C124.197 22.2086 123.962 21.1634 123.962 19.9622C123.962 18.761 124.212 17.708 124.713 16.8032C125.229 15.8828 125.948 15.173 126.871 14.6738C127.794 14.1746 128.858 13.925 130.062 13.925C130.688 13.925 131.314 14.0108 131.939 14.1824C132.581 14.354 133.152 14.5958 133.652 14.9078C134.137 15.2042 134.38 15.641 134.38 16.2182C134.38 16.6238 134.286 16.9592 134.098 17.2244C133.91 17.474 133.66 17.5988 133.347 17.5988C133.144 17.5988 132.948 17.5676 132.761 17.5052C132.589 17.4272 132.354 17.318 132.057 17.1776C131.728 17.006 131.431 16.8734 131.165 16.7798C130.915 16.6862 130.625 16.6394 130.297 16.6394C129.421 16.6394 128.748 16.9202 128.279 17.4818C127.825 18.0278 127.599 18.8312 127.599 19.892C127.599 20.9528 127.825 21.764 128.279 22.3256C128.748 22.8872 129.421 23.168 130.297 23.168C130.625 23.168 130.915 23.129 131.165 23.051C131.415 22.9574 131.72 22.817 132.08 22.6298C132.377 22.4894 132.612 22.388 132.784 22.3256C132.956 22.2476 133.144 22.2086 133.347 22.2086C133.644 22.2086 133.887 22.3412 134.075 22.6064C134.278 22.8716 134.38 23.207 134.38 23.6126C134.38 24.1898 134.137 24.6188 133.652 24.8996C133.152 25.2116 132.573 25.4534 131.916 25.625C131.259 25.7966 130.571 25.8824 129.851 25.8824Z"
        fill="white" />
    <path
        d="M142.639 23.2616C143.108 23.2928 143.453 23.4098 143.672 23.6126C143.89 23.8154 144 24.1118 144 24.5018C144 24.9542 143.82 25.2974 143.46 25.5314C143.101 25.7654 142.584 25.859 141.912 25.8122L141.255 25.7654C138.517 25.547 137.149 24.1196 137.149 21.4832V16.85H136.21C135.694 16.85 135.303 16.7408 135.037 16.5224C134.771 16.2884 134.638 15.9608 134.638 15.5396C134.638 15.1028 134.771 14.7752 135.037 14.5568C135.303 14.3228 135.694 14.2058 136.21 14.2058H137.149V12.3806C137.149 11.8658 137.305 11.4602 137.618 11.1638C137.946 10.8674 138.384 10.7192 138.932 10.7192C139.479 10.7192 139.91 10.8674 140.222 11.1638C140.535 11.4602 140.692 11.8658 140.692 12.3806V14.2058H142.334C143.398 14.2058 143.93 14.6504 143.93 15.5396C143.93 15.9608 143.797 16.2884 143.531 16.5224C143.265 16.7408 142.866 16.85 142.334 16.85H140.692V21.7406C140.692 22.2086 140.801 22.5674 141.02 22.817C141.239 23.051 141.56 23.1836 141.982 23.2148L142.639 23.2616Z"
        fill="white" />
    <defs>
        <linearGradient id="paint0_linear_4047_50404" x1="18.0486" y1="0" x2="18.0486" y2="36"
            gradientUnits="userSpaceOnUse">
            <stop stop-color="white" />
            <stop offset="1" stop-color="#EEF2F8" />
        </linearGradient>
        <linearGradient id="paint1_linear_4047_50404" x1="15.1777" y1="7.69922" x2="28.3417"
            y2="20.8988" gradientUnits="userSpaceOnUse">
            <stop stop-color="#A5BE00" />
            <stop offset="1" stop-color="#92A804" />
        </linearGradient>
        <linearGradient id="paint2_linear_4047_50404" x1="9.89767" y1="12.9648" x2="23.0617"
            y2="26.1644" gradientUnits="userSpaceOnUse">
            <stop stop-color="#60A2F0" />
            <stop offset="1" stop-color="#2174D6" />
        </linearGradient>
        <linearGradient id="paint3_linear_4047_50404" x1="4.61795" y1="18.2305" x2="17.782"
            y2="31.43" gradientUnits="userSpaceOnUse">
            <stop stop-color="#60A2F0" />
            <stop offset="1" stop-color="#2174D6" />
        </linearGradient>
    </defs>
</svg>