<?xml version="1.0" encoding="UTF-8" standalone="no"?>
<!-- Generator: Adobe Illustrator 26.0.3, SVG Export Plug-In . SVG Version: 6.00 Build 0)  -->

<svg
   version="1.1"
   id="Ebene_1"
   x="0px"
   y="0px"
   viewBox="0 0 283.45878 83.88592"
   xml:space="preserve"
   sodipodi:docname="mercateo.svg"
   width="283.45877"
   height="83.885918"
   inkscape:version="1.3.2 (091e20e, 2023-11-25)"
   xmlns:inkscape="http://www.inkscape.org/namespaces/inkscape"
   xmlns:sodipodi="http://sodipodi.sourceforge.net/DTD/sodipodi-0.dtd"
   xmlns="http://www.w3.org/2000/svg"
   xmlns:svg="http://www.w3.org/2000/svg"><defs
   id="defs8" /><sodipodi:namedview
   id="namedview8"
   pagecolor="#ffffff"
   bordercolor="#000000"
   borderopacity="0.25"
   inkscape:showpageshadow="2"
   inkscape:pageopacity="0.0"
   inkscape:pagecheckerboard="0"
   inkscape:deskcolor="#d1d1d1"
   inkscape:zoom="2.0959775"
   inkscape:cx="141.46144"
   inkscape:cy="54.867002"
   inkscape:window-width="1864"
   inkscape:window-height="1016"
   inkscape:window-x="56"
   inkscape:window-y="27"
   inkscape:window-maximized="1"
   inkscape:current-layer="Ebene_1" />
<style
   type="text/css"
   id="style1">
	.st0{fill:#DC3F2C;}
	.st1{fill:#424242;}
</style>
<path
   class="st0"
   d="m 283.35876,45.39296 v -7.1 c 0,-4.3 -1.2,-7.7 -3.5,-10 -2.3,-2.3 -5.7,-3.5 -10,-3.5 -4.3,0 -7.7,1.2 -10,3.5 -2.4,2.3 -3.6,5.7 -3.6,10 v 7 c 0,4.4 1.2,7.8 3.6,10 2.4,2.2 5.8,3.5 10,3.5 4.2,0 7.7,-1.2 10.1,-3.6 2.4,-2.4 3.5,-5.7 3.5,-10 m -6.8,0.4 c 0.2,2 -0.4,4 -1.8,5.5 -1.4,1.3 -3.2,1.9 -5.1,1.8 -1.9,0.1 -3.7,-0.5 -5.1,-1.8 -1.3,-1.4 -2,-3.3 -1.8,-5.3 v -7.8 c -0.1,-1.9 0.5,-3.8 1.8,-5.2 1.4,-1.2 3.3,-1.9 5.1,-1.8 3.4,-0.4 6.5,2.1 6.9,5.5 0.1,0.5 0.1,1 0,1.5 z m -30.1,-2.1 c 0.7,-0.7 1,-1.7 1.1,-2.7 v -3 c 0,-1.8 -0.3,-3.6 -0.9,-5.3 -0.6,-1.5 -1.5,-2.9 -2.6,-4.1 -1.2,-1.2 -2.6,-2.1 -4.1,-2.7 -3.5,-1.3 -7.3,-1.3 -10.8,0 -1.5,0.6 -3,1.4 -4.1,2.6 -1.2,1.2 -2.1,2.6 -2.6,4.1 -0.6,1.7 -0.9,3.5 -0.9,5.3 v 8.1 c 0,1.8 0.3,3.5 0.9,5.2 0.5,1.6 1.4,3 2.5,4.2 1.1,1.2 2.5,2.1 4.1,2.7 1.8,0.7 3.7,1 5.6,1 0.7,0 1.5,0 2.2,-0.1 0.9,-0.1 1.8,-0.2 2.7,-0.4 0.9,-0.2 1.8,-0.4 2.8,-0.7 0.8,-0.2 1.7,-0.6 2.5,-1 0.5,-0.2 1,-0.7 1.3,-1.2 0.3,-0.5 0.4,-1.1 0.4,-1.6 0,-1.7 -1.3,-3 -3,-3 -0.8,0.1 -1.5,0.2 -2.3,0.6 -0.9,0.4 -1.9,0.7 -2.9,0.9 -1.2,0.3 -2.4,0.4 -3.7,0.4 -1,0 -2.1,-0.2 -3,-0.6 -0.8,-0.3 -1.4,-0.9 -2,-1.5 -0.5,-0.6 -0.9,-1.3 -1.1,-2.1 -0.2,-0.8 -0.3,-1.6 -0.3,-2.5 v -1.1 h 15.3 c 1.1,0.1 2.2,-0.4 3,-1.3 m -5.8,-4.9 h -12.7 v -1.2 c -0.1,-1.8 0.4,-3.5 1.5,-4.9 1,-1.2 2.6,-1.8 4.9,-1.8 2.3,0 3.9,0.6 4.9,1.8 1.1,1.5 1.6,3.3 1.5,5.1 v 1 z m -34.9,10.1 v -17 h 6.3 c 1.6,0.2 3.1,-1 3.3,-2.7 0,-0.2 0,-0.3 0,-0.5 0.1,-1.7 -1.2,-3.1 -2.8,-3.2 -0.2,0 -0.3,0 -0.5,0 h -6.7 v -6.3 c 0.1,-1.7 -1.2,-3.2 -3,-3.3 -1.7,-0.1 -3.2,1.2 -3.3,3 0,0.1 0,0.2 0,0.4 v 6.3 h -1.5 c -1.8,0 -3.3,1.4 -3.3,3.2 0,0.8 0.3,1.6 0.8,2.2 0.7,0.6 1.5,1 2.5,0.9 h 1.5 v 16.9 c 0,1.5 0.2,3 0.7,4.4 0.4,1.2 1.2,2.3 2.1,3.2 0.9,0.9 1.9,1.5 3.1,1.9 1.2,0.4 2.5,0.7 3.9,0.7 0.6,0 1.3,0 1.9,-0.1 0.6,-0.1 1.2,-0.2 1.8,-0.3 0.8,-0.1 1.4,-0.5 2,-1 0.5,-0.5 0.8,-1.3 0.8,-2.1 0.1,-0.9 -0.3,-1.7 -0.9,-2.3 -0.6,-0.5 -1.4,-0.8 -2.2,-0.8 -0.5,0 -0.9,0 -1.4,0.2 -0.6,0.1 -1.2,0.2 -1.9,0.2 -0.9,0.1 -1.8,-0.3 -2.4,-0.9 -0.5,-0.9 -0.9,-1.9 -0.8,-3 m -19.2,7.1 c 0.4,-0.6 0.6,-1.4 0.6,-2.1 v -18.4 c 0,-1.6 -0.3,-3.2 -1,-4.7 -0.6,-1.3 -1.6,-2.4 -2.7,-3.3 -1.2,-0.9 -2.6,-1.6 -4,-2 -1.6,-0.4 -3.2,-0.7 -4.9,-0.7 -2,0 -4.1,0.2 -6,0.8 -1.4,0.4 -2.7,1 -4,1.7 -1,0.5 -1.6,1.5 -1.6,2.7 0,0.9 0.3,1.7 1,2.2 0.6,0.6 1.3,0.9 2.1,0.9 0.5,0 1,-0.1 1.4,-0.3 0.4,-0.2 1,-0.4 1.5,-0.7 0.8,-0.4 1.7,-0.7 2.6,-0.9 1,-0.2 2,-0.3 3.1,-0.3 1.5,-0.1 3.1,0.4 4.2,1.4 0.9,0.8 1.4,2 1.4,3.2 v 2.6 h -5.9 c -1.8,0 -3.5,0.2 -5.2,0.5 -1.5,0.3 -3,0.9 -4.3,1.8 -1.2,0.8 -2.2,1.9 -2.9,3.2 -0.7,1.5 -1.1,3.1 -1.1,4.8 0,1.7 0.3,3.3 1,4.8 0.6,1.3 1.6,2.4 2.8,3.3 1.3,0.9 2.7,1.5 4.3,1.8 1.8,0.4 3.7,0.6 5.5,0.6 1.8,0 3.6,-0.1 5.4,-0.4 1.6,-0.3 3.1,-0.6 4.6,-1.2 1,-0.2 1.7,-0.7 2.1,-1.3 m -5.9,-3.9 c -1.9,0.5 -3.9,0.8 -5.9,0.8 -1.7,0.1 -3.4,-0.2 -4.9,-0.8 -1.2,-0.6 -1.9,-1.7 -1.9,-3.4 -0.1,-1.4 0.6,-2.7 1.8,-3.4 1.5,-0.7 3.2,-1 4.8,-0.9 h 6.1 z m -42.5,-6.2 v -8.1 c -0.1,-1.9 0.5,-3.7 1.7,-5.1 1.2,-1.2 2.9,-1.8 4.6,-1.7 0.9,0 1.8,0.1 2.7,0.3 0.7,0.2 1.5,0.4 2.2,0.7 0.6,0.3 1.1,0.5 1.6,0.7 0.5,0.2 1.1,0.3 1.6,0.3 0.8,0 1.6,-0.3 2.1,-0.9 0.6,-0.6 0.9,-1.4 0.9,-2.2 0,-1.2 -0.6,-2.3 -1.7,-2.8 -1.4,-0.8 -2.8,-1.3 -4.4,-1.7 -1.6,-0.4 -3.3,-0.6 -4.9,-0.6 -1.8,0 -3.6,0.3 -5.3,0.9 -1.5,0.5 -2.9,1.4 -4.1,2.5 -1.2,1.2 -2.1,2.6 -2.7,4.1 -0.7,1.8 -1,3.6 -1,5.5 v 8.2 c 0,4.1 1.2,7.2 3.5,9.5 2.3,2.3 5.5,3.5 9.6,3.5 1.7,0 3.3,-0.2 4.9,-0.6 1.5,-0.4 3,-0.9 4.4,-1.6 1.1,-0.5 1.7,-1.6 1.7,-2.8 0,-0.8 -0.3,-1.6 -0.9,-2.2 -0.6,-0.6 -1.4,-0.9 -2.2,-0.8 -0.5,0 -1.1,0.1 -1.6,0.3 -0.4,0.2 -0.9,0.4 -1.5,0.6 -0.7,0.3 -1.5,0.6 -2.2,0.8 -0.9,0.2 -1.8,0.3 -2.8,0.3 -1.7,0.1 -3.4,-0.5 -4.6,-1.7 -1.2,-1.6 -1.8,-3.4 -1.6,-5.4 m -13,-15.2 c 0.6,-0.6 0.9,-1.4 0.9,-2.2 0.1,-1.6 -1.1,-3 -2.6,-3.1 -0.7,-0.1 -1.4,-0.3 -2.2,-0.3 -0.8,-0.1 -1.7,-0.1 -2.7,-0.1 -2.6,-0.1 -5.2,0.8 -7.1,2.6 -1.8,1.9 -2.8,4.5 -2.6,7.2 v 21 c 0,0.9 0.3,1.8 0.9,2.4 0.6,0.6 1.5,0.9 2.4,0.9 0.9,0 1.7,-0.3 2.4,-0.9 0.6,-0.6 1,-1.5 0.9,-2.4 v -21 c 0,-1 0.3,-2 1,-2.7 0.7,-0.7 1.6,-1 2.5,-1 0.7,0 1.5,0.1 2.2,0.2 0.6,0.1 1.1,0.2 1.7,0.2 0.9,0.1 1.7,-0.2 2.3,-0.8 m -27.100002,13 c 0.7,-0.7 1,-1.7 1.1,-2.7 v -3.2 c 0,-1.8 -0.3,-3.6 -0.9,-5.3 -0.6,-1.5 -1.5,-2.9 -2.6,-4.1 -1.2,-1.2 -2.6,-2.1 -4.1,-2.7 -3.5,-1.3 -7.3,-1.3 -10.8,0 -1.5,0.6 -2.9,1.5 -4.1,2.6 -1.2,1.2 -2.1,2.6 -2.6,4.1 -0.6,1.7 -0.9,3.5 -0.9,5.3 v 8.3 c 0,1.8 0.3,3.5 0.9,5.2 0.5,1.5 1.4,2.9 2.5,4.1 1.2,1.2 2.6,2.1 4.1,2.7 1.8,0.7 3.7,1 5.6,1 0.6,0 1.3,0 2.2,-0.1 0.9,-0.1 1.8,-0.2 2.7,-0.4 0.9,-0.2 1.8,-0.4 2.8,-0.7 0.9,-0.2 1.7,-0.6 2.5,-1 0.5,-0.3 1,-0.7 1.3,-1.2 0.3,-0.5 0.4,-1.1 0.4,-1.6 0,-1.7 -1.3,-3 -3,-3 -0.8,0.1 -1.5,0.3 -2.3,0.6 -1.1,0.3 -2.1,0.6 -3.1,0.9 -1.2,0.3 -2.4,0.4 -3.7,0.4 -1,0 -2.1,-0.2 -3,-0.6 -0.8,-0.4 -1.4,-0.9 -2,-1.5 -0.5,-0.6 -0.9,-1.3 -1.1,-2.1 -0.2,-0.8 -0.3,-1.6 -0.3,-2.5 v -1.2 h 15.3 c 1.2,0 2.3,-0.4 3.1,-1.3 m -5.6,-4.9 h -12.8 v -1.2 c -0.1,-1.8 0.4,-3.5 1.5,-4.9 1,-1.2 2.6,-1.8 4.9,-1.8 2.3,0 3.9,0.6 4.9,1.8 1.1,1.5 1.6,3.3 1.5,5.1 z m -64.6,16.8 v -23.7 c 1,-0.3 1.9,-0.5 2.9,-0.7 1,-0.2 2.1,-0.2 3.1,-0.2 1.1,0 2.2,0.2 3.2,0.7 0.5,0.3 1,0.7 1.4,1.2 0.4,0.6 0.6,1.3 0.6,2.1 v 20.6 c 0,0.9 0.3,1.8 0.9,2.4 0.6,0.6 1.5,1 2.4,0.9 0.9,0 1.8,-0.3 2.4,-0.9 0.6,-0.7 0.9,-1.5 0.9,-2.4 v -22.8 c 0.8,-0.5 1.7,-1 2.7,-1.3 0.9,-0.3 1.9,-0.5 2.9,-0.5 1.5,0 3,0.5 4.1,1.5 1.1,1.2 1.7,2.8 1.6,4.4 v 18.7 c 0,0.9 0.3,1.8 0.9,2.4 0.6,0.6 1.5,1 2.4,0.9 0.9,0 1.8,-0.3 2.4,-0.9 0.6,-0.7 0.9,-1.5 0.9,-2.4 v -18.4 c 0,-3.9 -1.1,-6.9 -3.3,-9 -2.2,-2.1 -5.2,-3.2 -9.1,-3.2 -1.6,0 -3.1,0.3 -4.6,0.7 -1.5,0.5 -3,1.1 -4.3,2 -2.3,-1.9 -5.2,-2.9 -8.2,-2.8 -1.7,0 -3.5,0.2 -5.2,0.5 -1.7,0.3 -3.3,0.7 -4.9,1.2 -0.8,0.3 -1.6,0.8 -2.1,1.5 -0.5,0.7 -0.8,1.5 -0.8,2.4 v 25.2 c 0,0.9 0.3,1.8 0.9,2.4 0.6,0.6 1.5,1 2.4,0.9 0.9,0 1.8,-0.3 2.4,-0.9 0.8,-0.7 1.1,-1.6 1.1,-2.5 m 45,-37 c 1.3,-1.2 1.4,-3.1 0.3,-4.4 -15.4,-17.3999998 -41.9,-18.9999998 -59.2,-3.7 -17.2999998,15.3 -18.9999998,41.8 -3.7,59.2 15.3,17.4 41.8,19 59.2,3.7 1.3,-1.1 2.5,-2.3 3.6,-3.6 1.2,-1.3 1.2,-3.2 -0.1,-4.4 -1.3,-1.2 -3.2,-1.2 -4.4,0.1 -0.1,0.1 -0.1,0.1 -0.2,0.2 -13.1,14.7 -35.6,16 -50.3,2.9 -14.6999998,-13.1 -15.9999998,-35.6 -2.9,-50.3 13.1,-14.6999998 35.6,-15.9999998 50.3,-2.9 1.1,1 2.1,2 3,3.1 1.1,1.1 3.1,1.2 4.4,0.1"
   id="path1" />







</svg>
