<?xml version="1.0" encoding="UTF-8" standalone="no"?>
<!-- Created with Inkscape (http://www.inkscape.org/) -->

<svg
   width="151.14343mm"
   height="52.476265mm"
   viewBox="0 0 151.14343 52.476265"
   version="1.1"
   id="svg1"
   sodipodi:docname="logo.svg"
   inkscape:version="1.3.2 (091e20e, 2023-11-25)"
   xmlns:inkscape="http://www.inkscape.org/namespaces/inkscape"
   xmlns:sodipodi="http://sodipodi.sourceforge.net/DTD/sodipodi-0.dtd"
   xmlns="http://www.w3.org/2000/svg"
   xmlns:svg="http://www.w3.org/2000/svg">
  <sodipodi:namedview
     id="namedview1"
     pagecolor="#ffffff"
     bordercolor="#000000"
     borderopacity="0.25"
     inkscape:showpageshadow="2"
     inkscape:pageopacity="0.0"
     inkscape:pagecheckerboard="0"
     inkscape:deskcolor="#d1d1d1"
     inkscape:document-units="mm"
     showgrid="true"
     showguides="false"
     guidecolor="#1de500"
     guideopacity="0.6"
     guidehicolor="#0024ff"
     guidehiopacity="0.49803922"
     inkscape:zoom="1.331101"
     inkscape:cx="418.07498"
     inkscape:cy="96.912259"
     inkscape:window-width="1864"
     inkscape:window-height="1016"
     inkscape:window-x="56"
     inkscape:window-y="27"
     inkscape:window-maximized="1"
     inkscape:current-layer="g121">
    <inkscape:grid
       id="grid7"
       units="mm"
       originx="-38.905957"
       originy="-82.989951"
       spacingx="0.5"
       spacingy="0.5"
       empcolor="#0099e5"
       empopacity="0.30196078"
       color="#e50023"
       opacity="0.14901961"
       empspacing="4"
       dotted="false"
       gridanglex="30"
       gridanglez="30"
       visible="true"
       snapvisiblegridlinesonly="false" />
    <sodipodi:guide
       position="3.0940401,277.98996"
       orientation="0,-1"
       id="guide7"
       inkscape:locked="false" />
    <sodipodi:guide
       position="7.0940401,255.98996"
       orientation="0,-1"
       id="guide9"
       inkscape:locked="false" />
  </sodipodi:namedview>
  <defs
     id="defs1">
    <filter
       id="selectable_hidder_filter"
       width="1"
       height="1"
       x="0"
       y="0"
       style="color-interpolation-filters:sRGB"
       inkscape:label="LPE boolean visibility">
      <feComposite
         id="boolops_hidder_primitive"
         result="composite1"
         operator="arithmetic"
         in2="SourceGraphic"
         in="BackgroundImage"
         k1="0"
         k2="0"
         k3="0"
         k4="0" />
    </filter>
    <inkscape:path-effect
       effect="bool_op"
       operand-path=""
       id="path-effect120"
       is_visible="true"
       lpeversion="1"
       operation="union"
       swap-operands="false"
       filltype-this="from-curve"
       filter=""
       filltype-operand="from-curve" />
  </defs>
  <g
     inkscape:label="Layer 1"
     inkscape:groupmode="layer"
     id="layer1"
     transform="translate(-38.90596,-82.989953)">
    <g
       id="text1"
       style="font-size:22.5778px;stroke-width:0.264583"
       aria-label="BYTIFIED">
      <g
         id="g121"
         transform="matrix(2.3550717,0,0,2.3550717,-41.530565,-154.22918)">
        <path
           d="m 36.692403,120.85265 -1.801947,0.10791 1.759461,1.7464 4.219492,-0.003 0.993221,-0.94826 -0.993221,-0.9033 z"
           style="font-weight:bold;font-family:'Digital dream';-inkscape-font-specification:'Digital dream, Bold';fill:#000000;fill-opacity:1;stroke:#000000;stroke-width:0.604228;stroke-dasharray:none;stroke-opacity:1"
           id="path118"
           sodipodi:nodetypes="ccccccc" />
        <path
           d="m 48.320117,112.18289 -0.903304,0.99322 -0.04494,7.2051 0.886607,0.89966 1.0099,-1.01737 v -7.08739 z"
           style="font-weight:bold;font-family:'Digital dream';-inkscape-font-specification:'Digital dream, Bold';fill:#000000;fill-opacity:1;stroke:#000000;stroke-width:0.604228;stroke-dasharray:none;stroke-opacity:1"
           id="path116"
           sodipodi:nodetypes="ccccccc" />
        <path
           d="m 35.382663,111.88937 -0.925783,1.33222 0.01308,7.32895 0.935185,0.91189 0.903304,-1.01596 v -7.22488 z"
           style="font-weight:bold;font-family:'Digital dream';-inkscape-font-specification:'Digital dream, Bold';fill:#000000;fill-opacity:1;stroke:#000000;stroke-width:0.604228;stroke-dasharray:none;stroke-opacity:1"
           id="path115"
           sodipodi:nodetypes="ccccccc" />
        <path
           d="m 42.855851,110.91836 -0.993221,0.94827 0.993221,0.90278 h 4.177006 l 0.993738,-0.94826 -0.993738,-0.90279 z"
           style="font-weight:bold;font-family:'Digital dream';-inkscape-font-specification:'Digital dream, Bold';fill:#000000;fill-opacity:1;stroke:#000000;stroke-width:0.604228;stroke-dasharray:none;stroke-opacity:1"
           id="path114" />
        <path
           d="m 42.855851,110.91836 h 4.177006 l 0.993738,0.90279 -0.993738,0.94826 h -4.177006 l -0.993221,-0.90278 z"
           style="font-weight:bold;font-family:'Digital dream';-inkscape-font-specification:'Digital dream, Bold';fill:#000000;fill-opacity:1;stroke:#000000;stroke-width:0.604228;stroke-dasharray:none;stroke-opacity:1"
           id="path113" />
        <path
           d="m 36.692403,110.96384 -0.993738,0.94827 0.993738,0.90278 h 4.177006 l 0.993221,-0.94826 -0.993221,-0.90279 z"
           style="font-weight:bold;font-family:'Digital dream';-inkscape-font-specification:'Digital dream, Bold';fill:#000000;fill-opacity:1;stroke:#000000;stroke-width:0.604228;stroke-dasharray:none;stroke-opacity:1"
           id="path112" />
        <path
           d="m 35.698665,110.96384 h 5.170744 l 0.993221,0.90279 -0.993221,0.94826 h -5.170744 v -0.90278 z"
           style="font-weight:bold;font-family:'Digital dream';-inkscape-font-specification:'Digital dream, Bold';fill:#000000;fill-opacity:1;stroke:#000000;stroke-width:0.604228;stroke-dasharray:none;stroke-opacity:1"
           id="path111"
           sodipodi:nodetypes="ccccccc" />
        <path
           d="m 36.096437,101.70967 -1.639557,1.6226 v 9.88932 l 0.925783,-1.33222 0.925784,2.39918 v -10.95628 z"
           style="font-weight:bold;font-family:'Digital dream';-inkscape-font-specification:'Digital dream, Bold';fill:#000000;fill-opacity:1;stroke:#000000;stroke-width:0.604228;stroke-dasharray:none;stroke-opacity:1"
           id="path110"
           sodipodi:nodetypes="ccccccc" />
        <path
           d="m 48.252361,102.26101 -0.835548,0.98082 v 7.29258 l 0.948263,0.99374 0.903304,-0.99374 v -7.29258 z"
           style="font-weight:bold;font-family:'Digital dream';-inkscape-font-specification:'Digital dream, Bold';fill:#000000;fill-opacity:1;stroke:#000000;stroke-width:0.604228;stroke-dasharray:none;stroke-opacity:1"
           id="path109"
           sodipodi:nodetypes="ccccccc" />
        <path
           d="m 42.855851,101.02904 -0.993221,0.94827 0.993221,0.9033 h 4.177006 l 0.961676,-0.87557 -0.961676,-0.976 z"
           style="font-weight:bold;font-family:'Digital dream';-inkscape-font-specification:'Digital dream, Bold';fill:#000000;fill-opacity:1;stroke:#000000;stroke-width:0.604228;stroke-dasharray:none;stroke-opacity:1"
           id="path108"
           sodipodi:nodetypes="ccccccc" />
        <path
           d="m 36.692403,101.07452 -0.961676,1.02491 0.961676,0.82666 h 4.177006 l 0.993221,-0.94826 -0.993221,-0.90331 z"
           style="font-weight:bold;font-family:'Digital dream';-inkscape-font-specification:'Digital dream, Bold';fill:#000000;fill-opacity:1;stroke:#000000;stroke-width:0.604228;stroke-dasharray:none;stroke-opacity:1"
           id="path107"
           sodipodi:nodetypes="ccccccc" />
        <path
           d="m 42.684621,120.78471 -0.961676,1.02491 0.961676,0.82666 4.248373,0.0253 1.486155,-1.54885 -0.98868,-0.3493 z"
           style="font-weight:bold;font-size:22.5778px;font-family:'Digital dream';-inkscape-font-specification:'Digital dream, Bold';fill:#000000;fill-opacity:1;stroke:#000000;stroke-width:0.604228;stroke-dasharray:none;stroke-opacity:1"
           id="path107-8"
           sodipodi:nodetypes="ccccccc" />
      </g>
      <path
         style="font-weight:bold;font-size:25.4px;font-family:'Digital dream';-inkscape-font-specification:'Digital dream, Bold';stroke-width:0.283589"
         d="m 91.181842,102.45482 -4.165365,5.96219 h -1.00731 v -2.34132 l 4.573734,-6.5339 h 0.598941 z m -8.194607,5.96219 h -1.00731 l -4.165364,-5.96219 v -2.91303 h 0.598942 l 4.573732,6.5339 z m 2.640787,11.8427 -1.088984,1.22511 -1.170658,-1.22511 v -8.71187 l 1.088984,-1.19788 1.170658,1.19788 z"
         id="path6" />
      <g
         id="g106"
         transform="translate(34.786004,-2.7498717)">
        <path
           d="m 144.22272,121.7781 -0.99322,0.94826 0.99322,0.9033 h 4.17701 l 0.99322,-0.94826 -0.99322,-0.9033 z"
           style="font-weight:bold;font-family:'Digital dream';-inkscape-font-specification:'Digital dream, Bold'"
           id="path55" />
        <path
           d="m 144.22272,121.7781 h 4.17701 l 0.99322,0.9033 -0.99322,0.94826 h -4.17701 l -0.99322,-0.9033 z"
           style="font-weight:bold;font-family:'Digital dream';-inkscape-font-specification:'Digital dream, Bold'"
           id="path54" />
        <path
           d="m 154.45052,114.07934 -3.47731,4.96714 v 2.39314 h 0.49713 l 3.79305,-5.41879 v -1.94149 z"
           style="font-weight:bold;font-family:'Digital dream';-inkscape-font-specification:'Digital dream, Bold'"
           id="path41" />
        <path
           d="m 142.8905,113.1533 -0.90278,0.99374 v 7.22488 l 0.94826,1.01596 0.90279,-1.01596 v -7.22488 z"
           style="font-weight:bold;font-family:'Digital dream';-inkscape-font-specification:'Digital dream, Bold'"
           id="path40" />
        <path
           d="m 150.97321,104.19002 v 2.41588 l 3.47731,4.9444 h 0.81287 v -1.94149 l -3.79305,-5.41879 z"
           style="font-weight:bold;font-family:'Digital dream';-inkscape-font-specification:'Digital dream, Bold'"
           id="path26" />
        <path
           d="m 142.8905,103.2645 -0.90278,0.99322 v 7.24762 l 0.94826,0.99322 0.90279,-0.99322 v -7.24762 z"
           style="font-weight:bold;font-family:'Digital dream';-inkscape-font-specification:'Digital dream, Bold'"
           id="path25" />
        <path
           d="m 144.22272,101.99998 -0.99322,0.94826 0.99322,0.9033 h 4.17701 l 0.99322,-0.94826 -0.99322,-0.9033 z"
           style="font-weight:bold;font-family:'Digital dream';-inkscape-font-specification:'Digital dream, Bold'"
           id="path19" />
      </g>
      <g
         id="g105"
         transform="translate(34.786004,-2.7498717)">
        <path
           d="m 132.97896,121.7781 -0.99322,0.94826 0.99322,0.9033 h 4.17701 l 0.99322,-0.94826 -0.99322,-0.9033 z"
           style="font-weight:bold;font-family:'Digital dream';-inkscape-font-specification:'Digital dream, Bold'"
           id="path53" />
        <path
           d="m 132.97896,121.7781 h 4.17701 l 0.99322,0.9033 -0.99322,0.94826 h -4.17701 l -0.99322,-0.9033 z"
           style="font-weight:bold;font-family:'Digital dream';-inkscape-font-specification:'Digital dream, Bold'"
           id="path52" />
        <path
           d="m 126.16026,121.7781 -0.99322,0.94826 0.99322,0.9033 h 4.177 l 0.99374,-0.94826 -0.99374,-0.9033 z"
           style="font-weight:bold;font-family:'Digital dream';-inkscape-font-specification:'Digital dream, Bold'"
           id="path51" />
        <path
           d="m 126.16026,121.7781 h 4.177 l 0.99374,0.9033 -0.99374,0.94826 h -4.177 l -0.99322,-0.9033 z"
           style="font-weight:bold;font-family:'Digital dream';-inkscape-font-specification:'Digital dream, Bold'"
           id="path50" />
        <path
           d="m 124.82856,113.1533 -0.90331,0.99374 v 7.22488 l 0.94826,1.01596 0.90331,-1.01596 v -7.22488 z"
           style="font-weight:bold;font-family:'Digital dream';-inkscape-font-specification:'Digital dream, Bold'"
           id="path39" />
        <path
           d="m 132.97896,111.88929 -0.99322,0.94827 0.99322,0.90278 h 4.17701 l 0.99322,-0.94826 -0.99322,-0.90279 z"
           style="font-weight:bold;font-family:'Digital dream';-inkscape-font-specification:'Digital dream, Bold'"
           id="path34" />
        <path
           d="m 132.97896,111.88929 h 4.17701 l 0.99322,0.90279 -0.99322,0.94826 h -4.17701 l -0.99322,-0.90278 z"
           style="font-weight:bold;font-family:'Digital dream';-inkscape-font-specification:'Digital dream, Bold'"
           id="path33" />
        <path
           d="m 126.16026,111.88929 -0.99322,0.94827 0.99322,0.90278 h 4.177 l 0.99374,-0.94826 -0.99374,-0.90279 z"
           style="font-weight:bold;font-family:'Digital dream';-inkscape-font-specification:'Digital dream, Bold'"
           id="path32" />
        <path
           d="m 126.16026,111.88929 h 4.177 l 0.99374,0.90279 -0.99374,0.94826 h -4.177 l -0.99322,-0.90278 z"
           style="font-weight:bold;font-family:'Digital dream';-inkscape-font-specification:'Digital dream, Bold'"
           id="path31" />
        <path
           d="m 124.82856,103.2645 -0.90331,0.99322 v 7.24762 l 0.94826,0.99322 0.90331,-0.99322 v -7.24762 z"
           style="font-weight:bold;font-family:'Digital dream';-inkscape-font-specification:'Digital dream, Bold'"
           id="path24" />
        <path
           d="m 132.97896,101.99998 -0.99322,0.94826 0.99322,0.9033 h 4.17701 l 0.99322,-0.94826 -0.99322,-0.9033 z"
           style="font-weight:bold;font-family:'Digital dream';-inkscape-font-specification:'Digital dream, Bold'"
           id="path18" />
        <path
           d="m 126.16026,101.99998 -0.99322,0.94826 0.99322,0.9033 h 4.177 l 0.99374,-0.94826 -0.99374,-0.9033 z"
           style="font-weight:bold;font-family:'Digital dream';-inkscape-font-specification:'Digital dream, Bold'"
           id="path17" />
      </g>
      <g
         id="g104"
         transform="translate(34.786004,-2.7498717)">
        <path
           d="m 114.9165,121.7781 -0.99322,0.94826 0.99322,0.9033 h 4.17701 l 0.99373,-0.94826 -0.99373,-0.9033 z"
           style="font-weight:bold;font-family:'Digital dream';-inkscape-font-specification:'Digital dream, Bold'"
           id="path49" />
        <path
           d="m 114.9165,121.7781 h 4.17701 l 0.99373,0.9033 -0.99373,0.94826 h -4.17701 l -0.99322,-0.9033 z"
           style="font-weight:bold;font-family:'Digital dream';-inkscape-font-specification:'Digital dream, Bold'"
           id="path48" />
        <path
           d="m 108.09831,121.7781 -0.99374,0.94826 0.99374,0.9033 h 4.17701 l 0.99322,-0.94826 -0.99322,-0.9033 z"
           style="font-weight:bold;font-family:'Digital dream';-inkscape-font-specification:'Digital dream, Bold'"
           id="path47" />
        <path
           d="m 108.09831,121.7781 h 4.17701 l 0.99322,0.9033 -0.99322,0.94826 h -4.17701 l -0.99374,-0.9033 z"
           style="font-weight:bold;font-family:'Digital dream';-inkscape-font-specification:'Digital dream, Bold'"
           id="path46" />
        <path
           d="m 113.56206,113.1533 -0.9033,0.99374 v 7.22488 l 0.971,1.01596 0.9033,-1.01596 v -7.22488 z"
           style="font-weight:bold;font-family:'Digital dream';-inkscape-font-specification:'Digital dream, Bold'"
           id="path38" />
        <path
           d="m 113.56206,103.2645 -0.9033,0.99322 v 7.24762 l 0.971,0.99322 0.9033,-0.99322 v -7.24762 z"
           style="font-weight:bold;font-family:'Digital dream';-inkscape-font-specification:'Digital dream, Bold'"
           id="path23" />
        <path
           d="m 114.9165,101.99998 -0.99322,0.94826 0.99322,0.9033 h 4.17701 l 0.99373,-0.94826 -0.99373,-0.9033 z"
           style="font-weight:bold;font-family:'Digital dream';-inkscape-font-specification:'Digital dream, Bold'"
           id="path16" />
        <path
           d="m 108.09831,101.99998 -0.99374,0.94826 0.99374,0.9033 h 4.17701 l 0.99322,-0.94826 -0.99322,-0.9033 z"
           style="font-weight:bold;font-family:'Digital dream';-inkscape-font-specification:'Digital dream, Bold'"
           id="path15" />
      </g>
      <g
         id="g103"
         transform="matrix(1,0,0,1.0521171,37.317018,-7.655687)">
        <path
           d="m 88.704146,113.1533 -0.903304,0.99374 v 7.22488 l 0.948263,1.01596 0.903304,-1.01596 v -7.22488 z"
           style="font-weight:bold;font-family:'Digital dream';-inkscape-font-specification:'Digital dream, Bold'"
           id="path37" />
        <path
           d="m 96.854553,111.88929 -0.993221,0.94827 0.993221,0.90278 h 4.177007 l 0.99322,-0.94826 -0.99322,-0.90279 z"
           style="font-weight:bold;font-family:'Digital dream';-inkscape-font-specification:'Digital dream, Bold'"
           id="path30" />
        <path
           d="m 96.854553,111.88929 h 4.177007 l 0.99322,0.90279 -0.99322,0.94826 h -4.177007 l -0.993221,-0.90278 z"
           style="font-weight:bold;font-family:'Digital dream';-inkscape-font-specification:'Digital dream, Bold'"
           id="path29" />
        <path
           d="m 90.035848,111.88929 -0.993221,0.94827 0.993221,0.90278 h 4.177006 l 0.993221,-0.94826 -0.993221,-0.90279 z"
           style="font-weight:bold;font-family:'Digital dream';-inkscape-font-specification:'Digital dream, Bold'"
           id="path28" />
        <path
           d="m 90.035848,111.88929 h 4.177006 l 0.993221,0.90279 -0.993221,0.94826 h -4.177006 l -0.993221,-0.90278 z"
           style="font-weight:bold;font-family:'Digital dream';-inkscape-font-specification:'Digital dream, Bold'"
           id="path27" />
        <path
           d="m 88.704146,103.2645 -0.903304,0.99322 v 7.24762 l 0.948263,0.99322 0.903304,-0.99322 v -7.24762 z"
           style="font-weight:bold;font-family:'Digital dream';-inkscape-font-specification:'Digital dream, Bold'"
           id="path22" />
        <path
           d="m 96.854553,101.99998 -0.993221,0.94826 0.993221,0.9033 h 4.177007 l 0.99322,-0.94826 -0.99322,-0.9033 z"
           style="font-weight:bold;font-family:'Digital dream';-inkscape-font-specification:'Digital dream, Bold'"
           id="path14" />
        <path
           d="m 90.035848,101.99998 -0.993221,0.94826 0.993221,0.9033 h 4.177006 l 0.993221,-0.94826 -0.993221,-0.9033 z"
           style="font-weight:bold;font-family:'Digital dream';-inkscape-font-specification:'Digital dream, Bold'"
           id="path13" />
      </g>
      <g
         id="g102"
         transform="translate(38.583512,-2.8397426)">
        <path
           d="m 78.79209,121.7781 -0.993221,0.94826 0.993221,0.9033 h 4.177006 l 0.993738,-0.94826 -0.993738,-0.9033 z"
           style="font-weight:bold;font-family:'Digital dream';-inkscape-font-specification:'Digital dream, Bold'"
           id="path45" />
        <path
           d="m 78.79209,121.7781 h 4.177006 l 0.993738,0.9033 -0.993738,0.94826 H 78.79209 l -0.993221,-0.9033 z"
           style="font-weight:bold;font-family:'Digital dream';-inkscape-font-specification:'Digital dream, Bold'"
           id="path44" />
        <path
           d="m 71.973901,121.7781 -0.993737,0.94826 0.993737,0.9033 h 4.177006 l 0.993221,-0.94826 -0.993221,-0.9033 z"
           style="font-weight:bold;font-family:'Digital dream';-inkscape-font-specification:'Digital dream, Bold'"
           id="path43" />
        <path
           d="m 71.973901,121.7781 h 4.177006 l 0.993221,0.9033 -0.993221,0.94826 h -4.177006 l -0.993737,-0.9033 z"
           style="font-weight:bold;font-family:'Digital dream';-inkscape-font-specification:'Digital dream, Bold'"
           id="path42" />
        <path
           d="m 77.437651,113.1533 -0.903304,0.99374 v 7.22488 l 0.971,1.01596 0.903304,-1.01596 v -7.22488 z"
           style="font-weight:bold;font-family:'Digital dream';-inkscape-font-specification:'Digital dream, Bold'"
           id="path36" />
        <path
           d="m 77.437651,103.2645 -0.903304,0.99322 v 7.24762 l 0.971,0.99322 0.903304,-0.99322 v -7.24762 z"
           style="font-weight:bold;font-family:'Digital dream';-inkscape-font-specification:'Digital dream, Bold'"
           id="path21" />
        <path
           d="m 78.79209,101.99998 -0.993221,0.94826 0.993221,0.9033 h 4.177006 l 0.993738,-0.94826 -0.993738,-0.9033 z"
           style="font-weight:bold;font-family:'Digital dream';-inkscape-font-specification:'Digital dream, Bold'"
           id="path12" />
        <path
           d="m 71.973901,101.99998 -0.993737,0.94826 0.993737,0.9033 h 4.177006 l 0.993221,-0.94826 -0.993221,-0.9033 z"
           style="font-weight:bold;font-family:'Digital dream';-inkscape-font-specification:'Digital dream, Bold'"
           id="path11" />
      </g>
      <g
         id="g55"
         transform="matrix(1,0,0,1.0545479,41.145459,-8.0459348)">
        <path
           d="m 59.375187,113.1533 -0.902787,0.99374 v 7.22488 l 0.970483,1.01596 0.903304,-1.01596 v -7.22488 z"
           style="font-weight:bold;font-family:'Digital dream';-inkscape-font-specification:'Digital dream, Bold'"
           id="path35" />
        <path
           d="m 59.375187,103.2645 -0.902787,0.99322 v 7.24762 l 0.970483,0.99322 0.903304,-0.99322 v -7.24762 z"
           style="font-weight:bold;font-family:'Digital dream';-inkscape-font-specification:'Digital dream, Bold'"
           id="path20" />
        <path
           d="m 60.730143,101.99998 -0.993738,0.94826 0.993738,0.9033 h 4.177006 l 0.993221,-0.94826 -0.993221,-0.9033 z"
           style="font-weight:bold;font-family:'Digital dream';-inkscape-font-specification:'Digital dream, Bold'"
           id="path10" />
        <path
           d="m 53.911438,101.99998 -0.993221,0.94826 0.993221,0.9033 h 4.177006 l 0.993221,-0.94826 -0.993221,-0.9033 z"
           style="font-weight:bold;font-family:'Digital dream';-inkscape-font-specification:'Digital dream, Bold'"
           id="path9" />
      </g>
    </g>
  </g>
</svg>
